<svg xmlns="http://www.w3.org/2000/svg" version="1.1" xmlns:xlink="http://www.w3.org/1999/xlink" width="512" height="512" x="0" y="0" viewBox="0 0 512 512" style="enable-background:new 0 0 512 512" xml:space="preserve" class=""><g><path d="M330.894 7.5H171.106c-1.438 0-2.842.31-4.123.89s-2.525 22.181-3.474 23.262l-46.162 55.485c-.802.912-22.004 1.789-22.426 2.907a10.007 10.007 0 0 0-.642 3.527v324.86c0 1.207.218 2.394.635 3.506.422 1.126 18.782 2.51 19.589 3.428l48.91 61.9c.942 1.072 2.271 15.755 3.541 16.334 1.289.588 2.703.903 4.152.903h159.789c2.877 0 5.614-1.239 7.513-3.4l66.827-76.07a10.001 10.001 0 0 0 2.487-6.6V93.57c0-2.429-.884-4.775-2.487-6.6L338.407 10.9a10 10 0 0 0-7.513-3.4z" style="" fill="#e51818" data-original="#fe5694" class="" opacity="1"></path><path d="m320.91 110.746 27.35 8.054c.729.899 18.518-9.131 18.896-8.054l20.566-8.519c8.688-7.205 17.375-15.224 16.569-16.142l-56.05-60.284c-.942-1.073-8.013-.396-12.433 4.905l-11.512 27.792c1.307.633-4.324 51.093-3.386 52.248zM367.156 401.254c-.378 1.077-30.619-16.333-31.348-15.434l-24.913 22.637c-.937 1.155 14.708 44.413 13.401 45.044l11.512 27.792c1.27-.58 12.504 6.938 13.446 5.865l52.678-60.881c.807-.918-9.572-13.559-14.211-16.505l-20.565-8.518zM219.172 401.254l-37.776-46.559c-.73-.899-36.174 47.635-36.552 46.559l-49.93 20.682a9.996 9.996 0 0 0 1.852 3.094l66.827 76.07a10.013 10.013 0 0 0 3.361 2.496l20.75-50.095c-1.307-.632 32.405-51.092 31.468-52.247zM180.531 134.026l37.776-46.559c.937-1.155-31.91-28.336-30.603-28.968l-20.75-50.095a9.99 9.99 0 0 0-3.361 2.496L96.766 86.97a10.009 10.009 0 0 0-1.852 3.095l49.93 20.682c.378-1.077 34.957 24.178 35.687 23.279z" style="" fill="#cf0909" data-original="#fd3581" class="" opacity="1"></path><path d="M319.945 57.5H192.054a9.998 9.998 0 0 0-7.765 3.699l-37.776 46.558a9.998 9.998 0 0 0-2.235 6.301v283.883a10 10 0 0 0 2.235 6.301l37.776 46.559a10.001 10.001 0 0 0 7.766 3.699h127.891c3.014 0 5.867-1.359 7.766-3.699l37.776-46.559a9.997 9.997 0 0 0 2.234-6.301V114.059c0-2.294-.789-4.519-2.234-6.301L327.712 61.2a10.003 10.003 0 0 0-7.767-3.7z" style="" fill="#b10000" data-original="#e41e7f" class="" opacity="1"></path><path d="m403.131 84.749-54.34-63.815c-.942-1.073-2.474-11.952-3.744-12.531a10.003 10.003 0 0 0-4.152-.903h-30c2.877 0 5.614 1.239 7.513 3.4l66.827 76.07a10.001 10.001 0 0 1 2.487 6.6v324.86c0 2.429-.884 4.775-2.487 6.6l-66.827 76.07a10.001 10.001 0 0 1-7.513 3.4h30c1.438 0 2.842-.31 4.123-.89 1.281-.58-.615-12.745.334-13.826l56.581-63.507c.802-.912 14.725-3.202 15.147-4.321a9.986 9.986 0 0 0 .643-3.527V93.57a9.984 9.984 0 0 0-.635-3.506c-.423-1.126-13.15-4.397-13.957-5.315z" style="" fill="#cf0909" data-original="#fd3581" class="" opacity="1"></path><path d="m417.086 421.935-29.364-12.163v8.658c0 2.429-.884 4.775-2.487 6.6l-49.427 56.263 9.238 22.303a9.977 9.977 0 0 0 3.361-2.496l66.827-76.07a9.982 9.982 0 0 0 1.852-3.095zM335.807 30.707l49.427 56.263a10.001 10.001 0 0 1 2.487 6.6v8.658l29.364-12.163a9.993 9.993 0 0 0-1.852-3.095L348.407 10.9a9.986 9.986 0 0 0-3.361-2.496l-9.239 22.303z" style="" fill="#b10000" data-original="#e41e7f" class="" opacity="1"></path><g id="rune" transform="translate(141 141) scale(2.3)"><path d="m38.33 50.51 29.35-19.79c.86-.58 1.35-1.55 1.31-2.59-.04-1.03-.61-1.97-1.51-2.48l-32.02-18.16c-.92-.52-2.05-.52-2.97.02-.92.53-1.48 1.51-1.48 2.57v39.76.02 39.91c0 1.65 1.33 2.98 2.98 2.98s2.98-1.33 2.98-2.98v-31.42l26.72 33.43c.59.74 1.45 1.12 2.33 1.12.65 0 1.31-.21 1.86-.65 1.29-1.03 1.49-2.9.47-4.19zm-1.36-35.32 23.4 13.28-23.4 15.78z" fill="#000000"/></g><path d="M94.278 166.077V418.43c0 2.429.884 4.775 2.487 6.6l66.827 76.07a10.001 10.001 0 0 0 7.513 3.4h169.789c2.877 0 5.614-1.239 7.513-3.4l66.827-76.07a10.001 10.001 0 0 0 2.487-6.6V93.57c0-2.429-.884-4.775-2.487-6.6L348.407 10.9a10.001 10.001 0 0 0-7.513-3.4H171.106a10.001 10.001 0 0 0-7.513 3.4L96.766 86.97a10.001 10.001 0 0 0-2.487 6.6v39.821" style="stroke-width:15;stroke-linecap:round;stroke-linejoin:round;stroke-miterlimit:10;" fill="none" stroke="#000000" stroke-width="15" stroke-linecap="round" stroke-linejoin="round" stroke-miterlimit="10" data-original="#000000" class=""></path><path d="M237.704 57.5h-45.65a9.998 9.998 0 0 0-7.765 3.699l-37.776 46.558a9.998 9.998 0 0 0-2.235 6.301v283.883a10 10 0 0 0 2.235 6.301l37.776 46.559a10 10 0 0 0 7.765 3.699h127.892a9.998 9.998 0 0 0 7.765-3.699l37.776-46.559a9.997 9.997 0 0 0 2.234-6.301v-38.116M367.722 327.139v-213.08c0-2.294-.789-4.519-2.234-6.301L327.712 61.2a10 10 0 0 0-7.765-3.699H270.39" style="stroke-width:15;stroke-linecap:round;stroke-linejoin:round;stroke-miterlimit:10;" fill="none" stroke="#000000" stroke-width="15" stroke-linecap="round" stroke-linejoin="round" stroke-miterlimit="10" data-original="#000000" class=""></path></g></svg>
